<svg xmlns="http://www.w3.org/2000/svg" viewBox="0 0 64 64" width="64" height="64">
  <!-- Background Circle -->
  <circle cx="32" cy="32" r="32" fill="#4CAF50"/>
  <!-- Pen Icon (representing Create/Update) -->
  <path d="M44 19.41L44 19.41c-0.78-0.78-2.05-0.78-2.83 0L28 32.59V40h7.41l13.17-13.17c0.78-0.78 0.78-2.05 0-2.83z" fill="#FFFFFF"/>
  <path d="M26.29 41.29L20 38l3.29 6.29c0.39 0.78 1.11 1.22 1.84 1.22s1.45-0.44 1.84-1.22l3.29-6.29-7.67-7.67-7.67 7.67c-0.39 0.39-0.39 1.02 0 1.41s1.02 0.39 1.41 0l7.67-7.67z" fill="#FFFFFF"/>
  <!-- Trash Icon (representing Delete) -->
  <path d="M38.39 22L25.61 22c-0.83 0-1.5 0.67-1.5 1.5s0.67 1.5 1.5 1.5h12.78c0.83 0 1.5-0.67 1.5-1.5s-0.67-1.5-1.5-1.5z" fill="#FFFFFF"/>
  <path d="M25.61 20c-1.57 0-3 1.29-3 3s1.29 3 3 3h12.78c1.57 0 3-1.29 3-3s-1.29-3-3-3H25.61z" fill="#FFFFFF"/>
  <!-- Database Icon (representing Read) -->
  <ellipse cx="32" cy="52" rx="10" ry="3" fill="#FFFFFF"/>
  <path d="M32 40c5.52 0 10 1.79 10 4s-4.48 4-10 4-10-1.79-10-4 4.48-4 10-4z" fill="#FFFFFF"/>
</svg>
